HIERARCHY
ROOT hip
{
  OFFSET 0 90.174 2.4664
  CHANNELS 6 Xposition Yposition Zposition Zrotation Xrotation Yrotation
  JOINT abdomen
  {
    OFFSET 0 -1.186 -1.5018
    CHANNELS 6 Xposition Yposition Zposition Zrotation Xrotation Yrotation
    JOINT abdomen2
    {
      OFFSET 0 9.964 0.2134
      CHANNELS 6 Xposition Yposition Zposition Zrotation Xrotation Yrotation
      JOINT chest
      {
        OFFSET 0 13.134 -3.2573
        CHANNELS 6 Xposition Yposition Zposition Zrotation Xrotation Yrotation
        JOINT neck
        {
          OFFSET 0 20.686 -1.6905
          CHANNELS 6 Xposition Yposition Zposition Zrotation Xrotation Yrotation
          JOINT head
          {
            OFFSET 0 7.238 -0.1237
            CHANNELS 6 Xposition Yposition Zposition Zrotation Xrotation Yrotation
            End Site
            {
              OFFSET 0 0 0
            }
          }
        }
        JOINT lCollar
        {
          OFFSET 1.7069 20.075 5.0056
          CHANNELS 6 Xposition Yposition Zposition Zrotation Xrotation Yrotation
          JOINT lShldr
          {
            OFFSET 13.6458 -0.047 -4.849
            CHANNELS 6 Xposition Yposition Zposition Zrotation Xrotation Yrotation
            JOINT lForeArm
            {
              OFFSET 28.3255 -0.9759 2.2888
              CHANNELS 6 Xposition Yposition Zposition Zrotation Xrotation Yrotation
              JOINT lHand
              {
                OFFSET 22.1583 -0.53 10.8316
                CHANNELS 6 Xposition Yposition Zposition Zrotation Xrotation Yrotation
                JOINT lThumb1
                {
                  OFFSET 0.786 0.112 2.5817
                  CHANNELS 6 Xposition Yposition Zposition Zrotation Xrotation Yrotation
                  JOINT lThumb2
                  {
                    OFFSET 0.3601 -0.878 4.2331
                    CHANNELS 6 Xposition Yposition Zposition Zrotation Xrotation Yrotation
                    JOINT lThumb2_End
                    {
                      OFFSET 1.8127 -1.216 2.2227
                      CHANNELS 6 Xposition Yposition Zposition Zrotation Xrotation Yrotation
                      End Site
                      {
                        OFFSET 0.0181 -0.0122 0.0222
                      }
                    }
                  }
                }
                JOINT lCarpal1
                {
                  OFFSET 0.9571 1.114 1.7695
                  CHANNELS 6 Xposition Yposition Zposition Zrotation Xrotation Yrotation
                  JOINT lIndex1
                  {
                    OFFSET 4.1246 0.487 4.1451
                    CHANNELS 6 Xposition Yposition Zposition Zrotation Xrotation Yrotation
                    JOINT lIndex2
                    {
                      OFFSET 3.4052 -1.454 2.7682
                      CHANNELS 6 Xposition Yposition Zposition Zrotation Xrotation Yrotation
                      JOINT lIndex2_End
                      {
                        OFFSET 1.4531 -1.795 1.2713
                        CHANNELS 6 Xposition Yposition Zposition Zrotation Xrotation Yrotation
                        End Site
                        {
                          OFFSET 0.0145 -0.0179 0.0127
                        }
                      }
                    }
                  }
                  JOINT lMid1
                  {
                    OFFSET 5.6954 0.21 2.1184
                    CHANNELS 6 Xposition Yposition Zposition Zrotation Xrotation Yrotation
                    JOINT lMid2
                    {
                      OFFSET 3.9766 -1.54 2.3863
                      CHANNELS 6 Xposition Yposition Zposition Zrotation Xrotation Yrotation
                      JOINT lMid2_End
                      {
                        OFFSET 1.4042 -1.926 1.125
                        CHANNELS 6 Xposition Yposition Zposition Zrotation Xrotation Yrotation
                        End Site
                        {
                          OFFSET 0.014 -0.0193 0.0113
                        }
                      }
                    }
                  }
                }
                JOINT lCarpal2
                {
                  OFFSET 2.0956 0.66 -0.3894
                  CHANNELS 6 Xposition Yposition Zposition Zrotation Xrotation Yrotation
                  JOINT lRing1
                  {
                    OFFSET 5.0395 -0.09 2.4971
                    CHANNELS 6 Xposition Yposition Zposition Zrotation Xrotation Yrotation
                    JOINT lRing2
                    {
                      OFFSET 3.7921 -1.552 1.4806
                      CHANNELS 6 Xposition Yposition Zposition Zrotation Xrotation Yrotation
                      JOINT lRing2_End
                      {
                        OFFSET 1.4655 -1.808 0.9609
                        CHANNELS 6 Xposition Yposition Zposition Zrotation Xrotation Yrotation
                        End Site
                        {
                          OFFSET 0.0147 -0.0181 0.0096
                        }
                      }
                    }
                  }
                  JOINT lPinky1
                  {
                    OFFSET 4.9141 -1.269 0.3591
                    CHANNELS 6 Xposition Yposition Zposition Zrotation Xrotation Yrotation
                    JOINT lPinky2
                    {
                      OFFSET 3.1477 -1.685 0.8462
                      CHANNELS 6 Xposition Yposition Zposition Zrotation Xrotation Yrotation
                      JOINT lPinky2_End
                      {
                        OFFSET 0.8055 -1.585 0.7955
                        CHANNELS 6 Xposition Yposition Zposition Zrotation Xrotation Yrotation
                        End Site
                        {
                          OFFSET 0.0081 -0.0158 0.008
                        }
                      }
                    }
                  }
                }
              }
            }
          }
        }
        JOINT rCollar
        {
          OFFSET -1.7069 20.075 5.0056
          CHANNELS 6 Xposition Yposition Zposition Zrotation Xrotation Yrotation
          JOINT rShldr
          {
            OFFSET -13.6458 -0.047 -4.849
            CHANNELS 6 Xposition Yposition Zposition Zrotation Xrotation Yrotation
            JOINT rForeArm
            {
              OFFSET -28.3255 -0.9759 2.2888
              CHANNELS 6 Xposition Yposition Zposition Zrotation Xrotation Yrotation
              JOINT rHand
              {
                OFFSET -22.1583 -0.53 10.8316
                CHANNELS 6 Xposition Yposition Zposition Zrotation Xrotation Yrotation
                JOINT rThumb1
                {
                  OFFSET -0.786 0.112 2.5817
                  CHANNELS 6 Xposition Yposition Zposition Zrotation Xrotation Yrotation
                  JOINT rThumb2
                  {
                    OFFSET -0.3601 -0.878 4.2331
                    CHANNELS 6 Xposition Yposition Zposition Zrotation Xrotation Yrotation
                    JOINT rThumb2_End
                    {
                      OFFSET -1.8127 -1.216 2.2227
                      CHANNELS 6 Xposition Yposition Zposition Zrotation Xrotation Yrotation
                      End Site
                      {
                        OFFSET -0.0181 -0.0122 0.0222
                      }
                    }
                  }
                }
                JOINT rCarpal1
                {
                  OFFSET -0.9571 1.114 1.7695
                  CHANNELS 6 Xposition Yposition Zposition Zrotation Xrotation Yrotation
                  JOINT rIndex1
                  {
                    OFFSET -4.1246 0.487 4.1451
                    CHANNELS 6 Xposition Yposition Zposition Zrotation Xrotation Yrotation
                    JOINT rIndex2
                    {
                      OFFSET -3.4052 -1.454 2.7682
                      CHANNELS 6 Xposition Yposition Zposition Zrotation Xrotation Yrotation
                      JOINT rIndex2_End
                      {
                        OFFSET -1.4531 -1.795 1.2713
                        CHANNELS 6 Xposition Yposition Zposition Zrotation Xrotation Yrotation
                        End Site
                        {
                          OFFSET -0.0145 -0.018 0.0127
                        }
                      }
                    }
                  }
                  JOINT rMid1
                  {
                    OFFSET -5.6954 0.21 2.1184
                    CHANNELS 6 Xposition Yposition Zposition Zrotation Xrotation Yrotation
                    JOINT rMid2
                    {
                      OFFSET -3.9766 -1.54 2.3863
                      CHANNELS 6 Xposition Yposition Zposition Zrotation Xrotation Yrotation
                      JOINT rMid2_End
                      {
                        OFFSET -1.4042 -1.926 1.125
                        CHANNELS 6 Xposition Yposition Zposition Zrotation Xrotation Yrotation
                        End Site
                        {
                          OFFSET -0.014 -0.0193 0.0113
                        }
                      }
                    }
                  }
                }
                JOINT rCarpal2
                {
                  OFFSET -2.0956 0.66 -0.3894
                  CHANNELS 6 Xposition Yposition Zposition Zrotation Xrotation Yrotation
                  JOINT rRing1
                  {
                    OFFSET -5.0395 -0.09 2.4971
                    CHANNELS 6 Xposition Yposition Zposition Zrotation Xrotation Yrotation
                    JOINT rRing2
                    {
                      OFFSET -3.7921 -1.552 1.4806
                      CHANNELS 6 Xposition Yposition Zposition Zrotation Xrotation Yrotation
                      JOINT rRing2_End
                      {
                        OFFSET -1.4655 -1.808 0.9609
                        CHANNELS 6 Xposition Yposition Zposition Zrotation Xrotation Yrotation
                        End Site
                        {
                          OFFSET -0.0147 -0.0181 0.0096
                        }
                      }
                    }
                  }
                  JOINT rPinky1
                  {
                    OFFSET -4.9141 -1.269 0.3592
                    CHANNELS 6 Xposition Yposition Zposition Zrotation Xrotation Yrotation
                    JOINT rPinky2
                    {
                      OFFSET -3.1477 -1.685 0.8462
                      CHANNELS 6 Xposition Yposition Zposition Zrotation Xrotation Yrotation
                      JOINT rPinky2_End
                      {
                        OFFSET -0.8055 -1.585 0.7955
                        CHANNELS 6 Xposition Yposition Zposition Zrotation Xrotation Yrotation
                        End Site
                        {
                          OFFSET -0.0081 -0.0158 0.008
                        }
                      }
                    }
                  }
                }
              }
            }
          }
        }
      }
    }
  }
  JOINT lThigh
  {
    OFFSET 8.367 -8.2066 0.5982
    CHANNELS 6 Xposition Yposition Zposition Zrotation Xrotation Yrotation
    JOINT lShin
    {
      OFFSET 2.1923 -43.463 -0.4932
      CHANNELS 6 Xposition Yposition Zposition Zrotation Xrotation Yrotation
      JOINT lFoot
      {
        OFFSET 0.7333 -45.8593 -2.6451
        CHANNELS 6 Xposition Yposition Zposition Zrotation Xrotation Yrotation
        End Site
        {
          OFFSET 2.6618 -4.2699 12.3931
        }
      }
    }
  }
  JOINT rThigh
  {
    OFFSET -8.367 -8.2066 0.5982
    CHANNELS 6 Xposition Yposition Zposition Zrotation Xrotation Yrotation
    JOINT rShin
    {
      OFFSET -2.1923 -43.463 -0.4931
      CHANNELS 6 Xposition Yposition Zposition Zrotation Xrotation Yrotation
      JOINT rFoot
      {
        OFFSET -0.7333 -45.8593 -2.6451
        CHANNELS 6 Xposition Yposition Zposition Zrotation Xrotation Yrotation
        End Site
        {
          OFFSET -2.6618 -4.2699 12.3931
        }
      }
    }
  }
}
MOTION
Frames:	4
Frame Time:	0.0333333
0.827439 19.3414 -5.50198 10.6729 -89.4199 -169.207 1.11022e-016 -1.186 -1.5018 -0.142821 -5.76766 -0.741311 2.22045e-016 9.964 0.2134 -0.363863 -11.5328 -1.50871 2.22045e-016 13.134 -3.2573 -0.363864 -11.5328 -1.50871 0 20.686 -1.6905 -5.00913 3.05187 -20.7342 -5.32907e-015 7.238 -0.1237 -14.7802 -18.4863 -19.7836 1.7069 20.075 5.0056 3.36432 37.3113 15.4636 13.6458 -0.047 -4.849 52.7697 -2.75422 -41.7479 28.3255 -0.9759 2.2888 31.767 -31.8193 -38.9303 22.1583 -0.53 10.8316 76.0923 -8.64921 70.3136 0.786 0.112 2.5817 7.91157e-007 1.76026e-006 -2.22741e-006 0.3601 -0.878 4.2331 -2.49825e-006 -9.28515e-007 4.00789e-007 1.8127 -1.216 2.2227 -7.91157e-007 -1.76026e-006 2.22741e-006 0.9571 1.114 1.7695 -7.95139e-016 5.96354e-016 -0 4.1246 0.487 4.1451 7.91157e-007 1.76026e-006 -2.22741e-006 3.4052 -1.454 2.7682 -2.49825e-006 -9.28515e-007 4.00789e-007 1.4531 -1.795 1.2713 -7.91157e-007 -1.76026e-006 2.22741e-006 5.6954 0.21 2.1184 7.91157e-007 1.76026e-006 -2.22741e-006 3.9766 -1.54 2.3863 -2.49825e-006 -9.28515e-007 4.00789e-007 1.4042 -1.926 1.125 -7.91157e-007 -1.76026e-006 2.22741e-006 2.0956 0.66 -0.3894 -7.95139e-016 5.96354e-016 -0 5.0395 -0.09 2.4971 7.91157e-007 1.76026e-006 -2.22741e-006 3.7921 -1.552 1.4806 -2.49825e-006 -9.28515e-007 4.00789e-007 1.4655 -1.808 0.9609 -7.91157e-007 -1.76026e-006 2.22741e-006 4.9141 -1.269 0.3591 7.91157e-007 1.76026e-006 -2.22741e-006 3.1477 -1.685 0.8462 -2.49825e-006 -9.28515e-007 4.00789e-007 0.8055 -1.585 0.7955 -7.91157e-007 -1.76026e-006 2.22741e-006 -1.7069 20.075 5.0056 45.0278 3.15482 -19.8298 -13.6458 -0.047 -4.849 -43.4965 12.0339 55.4607 -28.3255 -0.9759 2.2888 -28.1762 -28.4985 37.2368 -22.1583 -0.53 10.8316 -58.3022 -14.4453 -3.22428 -0.786 0.112 2.5817 4.49926e-009 5.92956e-007 -7.91882e-007 -0.3601 -0.878 4.2331 -1.04147e-006 -4.89272e-007 -4.3652e-006 -1.8127 -1.216 2.2227 -4.05033e-008 3.40599e-008 6.83556e-009 -0.9571 1.114 1.7695 1.59028e-015 3.97569e-016 -1.59028e-015 -4.1246 0.487 4.1451 4.49925e-009 5.92956e-007 -7.91882e-007 -3.4052 -1.454 2.7682 -1.04147e-006 -4.89272e-007 -4.3652e-006 -1.4531 -1.795 1.2713 -4.05033e-008 3.40599e-008 6.83556e-009 -5.6954 0.21 2.1184 4.49925e-009 5.92956e-007 -7.91882e-007 -3.9766 -1.54 2.3863 -1.04147e-006 -4.89272e-007 -4.3652e-006 -1.4042 -1.926 1.125 -4.05033e-008 3.40599e-008 6.83556e-009 -2.0956 0.66 -0.3894 1.59028e-015 3.97569e-016 -1.59028e-015 -5.0395 -0.09 2.4971 4.49925e-009 5.92956e-007 -7.91882e-007 -3.7921 -1.552 1.4806 -1.04147e-006 -4.89272e-007 -4.3652e-006 -1.4655 -1.808 0.9609 -4.05033e-008 3.40599e-008 6.83556e-009 -4.9141 -1.269 0.3592 4.49925e-009 5.92956e-007 -7.91882e-007 -3.1477 -1.685 0.8462 -1.04147e-006 -4.89272e-007 -4.3652e-006 -0.8055 -1.585 0.7955 -4.05033e-008 3.40599e-008 6.83556e-009 8.367 -8.2066 0.5982 87.7062 -28.2236 90.1787 2.1923 -43.463 -0.4932 -53.4495 80.8954 52.9886 0.7333 -45.8593 -2.6451 31.2535 52.9913 -29.4279 -8.367 -8.2066 0.5982 -87.711 -28.2176 -90.2038 -2.1923 -43.463 -0.4931 53.4547 80.8966 -53.005 -0.7333 -45.8593 -2.6451 -31.2818 52.9846 29.4337 
0.826805 19.3487 -5.44114 151.484 -89.7637 -28.3907 -1.11022e-016 -1.186 -1.5018 -0.138297 -6.0532 -0.742622 0 9.964 0.2134 -0.359026 -12.104 -1.51281 -2.22045e-016 13.134 -3.2573 -0.359027 -12.1041 -1.51281 0 20.686 -1.6905 -5.00854 2.89314 -20.7482 1.77636e-015 7.238 -0.1237 -14.8054 -18.7687 -19.8623 1.7069 20.075 5.0056 3.58624 37.7969 14.9608 13.6458 -0.047 -4.849 52.6941 -2.62816 -41.7693 28.3255 -0.9759 2.2888 31.5883 -31.5279 -38.6129 22.1583 -0.53 10.8316 76.0923 -8.64921 70.3135 0.786 0.112 2.5817 1.18528e-006 -1.28452e-007 -1.89972e-007 0.3601 -0.878 4.2331 6.56864e-007 5.28413e-007 -1.04841e-007 1.8127 -1.216 2.2227 6.56864e-007 5.28413e-007 -1.04841e-007 0.9571 1.114 1.7695 -0 -5.56597e-015 -0 4.1246 0.487 4.1451 1.18528e-006 -1.28452e-007 -1.89972e-007 3.4052 -1.454 2.7682 6.56864e-007 5.28413e-007 -1.04841e-007 1.4531 -1.795 1.2713 6.56864e-007 5.28413e-007 -1.04841e-007 5.6954 0.21 2.1184 1.18528e-006 -1.28452e-007 -1.89972e-007 3.9766 -1.54 2.3863 6.56864e-007 5.28413e-007 -1.04841e-007 1.4042 -1.926 1.125 6.56864e-007 5.28413e-007 -1.04841e-007 2.0956 0.66 -0.3894 -0 -5.56597e-015 -0 5.0395 -0.09 2.4971 1.18528e-006 -1.28452e-007 -1.89972e-007 3.7921 -1.552 1.4806 6.56864e-007 5.28413e-007 -1.04841e-007 1.4655 -1.808 0.9609 6.56864e-007 5.28413e-007 -1.04841e-007 4.9141 -1.269 0.3591 1.18528e-006 -1.28452e-007 -1.89972e-007 3.1477 -1.685 0.8462 6.56864e-007 5.28413e-007 -1.04841e-007 0.8055 -1.585 0.7955 6.56864e-007 5.28413e-007 -1.04841e-007 -1.7069 20.075 5.0056 45.1646 3.42655 -19.7851 -13.6458 -0.047 -4.849 -43.4434 12.1547 55.4072 -28.3255 -0.9759 2.2888 -28.0562 -28.2859 36.9399 -22.1583 -0.53 10.8316 -58.106 -14.5417 -2.96493 -0.786 0.112 2.5817 -2.0251e-007 1.70303e-007 3.41948e-008 -0.3601 -0.878 4.2331 -1.59028e-015 -2.98177e-015 -3.18055e-015 -1.8127 -1.216 2.2227 -2.0251e-007 1.70303e-007 3.41948e-008 -0.9571 1.114 1.7695 -6.62086e-032 2.38542e-015 1.59028e-015 -4.1246 0.487 4.1451 -2.0251e-007 1.70303e-007 3.41949e-008 -3.4052 -1.454 2.7682 -1.59028e-015 -3.18055e-015 -1.59028e-015 -1.4531 -1.795 1.2713 -2.0251e-007 1.70303e-007 3.41948e-008 -5.6954 0.21 2.1184 -2.0251e-007 1.70303e-007 3.41949e-008 -3.9766 -1.54 2.3863 -1.59028e-015 -3.18055e-015 -1.59028e-015 -1.4042 -1.926 1.125 -2.0251e-007 1.70303e-007 3.41948e-008 -2.0956 0.66 -0.3894 -6.62086e-032 2.38542e-015 1.59028e-015 -5.0395 -0.09 2.4971 -2.0251e-007 1.70303e-007 3.41949e-008 -3.7921 -1.552 1.4806 -1.59028e-015 -3.18055e-015 -1.59028e-015 -1.4655 -1.808 0.9609 -2.0251e-007 1.70303e-007 3.41948e-008 -4.9141 -1.269 0.3592 -2.0251e-007 1.70303e-007 3.41949e-008 -3.1477 -1.685 0.8462 -1.59028e-015 -3.18055e-015 -1.59028e-015 -0.8055 -1.585 0.7955 -2.0251e-007 1.70303e-007 3.41948e-008 8.367 -8.2066 0.5982 88.2147 -28.6907 90.8148 2.1923 -43.463 -0.4932 -53.4421 80.8961 53.0025 0.7333 -45.8593 -2.6451 30.5527 53.2505 -28.8491 -8.367 -8.2066 0.5982 -88.2192 -28.6854 -90.8396 -2.1923 -43.463 -0.4931 53.447 80.8972 -53.019 -0.7333 -45.8593 -2.6451 -30.5807 53.244 28.8546 
0.826182 19.3563 -5.37945 173.158 -89.0078 -6.71244 0 -1.186 -1.5018 -0.133766 -6.33874 -0.743877 2.22045e-016 9.964 0.2134 -0.354201 -12.6751 -1.51681 -2.22045e-016 13.134 -3.2573 -0.354201 -12.6751 -1.51681 0 20.686 -1.6905 -5.00793 2.73376 -20.7622 -1.77636e-015 7.238 -0.1237 -14.831 -19.0511 -19.9413 1.7069 20.075 5.0056 3.81503 38.2807 14.4522 13.6458 -0.047 -4.849 52.6185 -2.50209 -41.7904 28.3255 -0.9759 2.2888 31.4083 -31.2374 -38.2955 22.1583 -0.53 10.8316 76.0923 -8.64921 70.3135 0.786 0.112 2.5817 -2.40006e-031 8.64713e-015 1.59028e-015 0.3601 -0.878 4.2331 -1.0483e-031 1.88845e-015 3.18055e-015 1.8127 -1.216 2.2227 -7.95139e-016 8.44835e-015 1.59028e-015 0.9571 1.114 1.7695 1.59028e-015 5.1684e-015 -1.59028e-015 4.1246 0.487 4.1451 7.95139e-016 5.06901e-015 3.18055e-015 3.4052 -1.454 2.7682 -7.95139e-016 1.98785e-015 -0 1.4531 -1.795 1.2713 -7.95139e-016 5.86415e-015 1.59028e-015 5.6954 0.21 2.1184 7.95139e-016 5.06901e-015 3.18055e-015 3.9766 -1.54 2.3863 -7.95139e-016 1.98785e-015 -0 1.4042 -1.926 1.125 -7.95139e-016 5.86415e-015 1.59028e-015 2.0956 0.66 -0.3894 1.59028e-015 5.1684e-015 -1.59028e-015 5.0395 -0.09 2.4971 7.95139e-016 5.06901e-015 3.18055e-015 3.7921 -1.552 1.4806 -7.95139e-016 1.98785e-015 -0 1.4655 -1.808 0.9609 -7.95139e-016 5.86415e-015 1.59028e-015 4.9141 -1.269 0.3591 7.95139e-016 5.06901e-015 3.18055e-015 3.1477 -1.685 0.8462 -7.95139e-016 1.98785e-015 -0 0.8055 -1.585 0.7955 -7.95139e-016 5.86415e-015 1.59028e-015 -1.7069 20.075 5.0056 45.3012 3.69831 -19.741 -13.6458 -0.047 -4.849 -43.3902 12.2756 55.3534 -28.3255 -0.9759 2.2888 -27.9353 -28.0739 36.643 -22.1583 -0.53 10.8316 -57.9092 -14.6372 -2.70522 -0.786 0.112 2.5817 -1.21501e-007 1.02186e-007 2.05275e-008 -0.3601 -0.878 4.2331 -4.05003e-008 3.40619e-008 6.84251e-009 -1.8127 -1.216 2.2227 -1.21501e-007 1.02186e-007 2.05275e-008 -0.9571 1.114 1.7695 3.18055e-015 -3.37934e-015 -3.18055e-015 -4.1246 0.487 4.1451 -1.21501e-007 1.02186e-007 2.05275e-008 -3.4052 -1.454 2.7682 -4.05003e-008 3.40619e-008 6.84251e-009 -1.4531 -1.795 1.2713 -1.21501e-007 1.02186e-007 2.05275e-008 -5.6954 0.21 2.1184 -1.21501e-007 1.02186e-007 2.05275e-008 -3.9766 -1.54 2.3863 -4.05003e-008 3.40619e-008 6.84251e-009 -1.4042 -1.926 1.125 -1.21501e-007 1.02186e-007 2.05275e-008 -2.0956 0.66 -0.3894 3.18055e-015 -3.37934e-015 -3.18055e-015 -5.0395 -0.09 2.4971 -1.21501e-007 1.02186e-007 2.05275e-008 -3.7921 -1.552 1.4806 -4.05003e-008 3.40619e-008 6.84251e-009 -1.4655 -1.808 0.9609 -1.21501e-007 1.02186e-007 2.05275e-008 -4.9141 -1.269 0.3592 -1.21501e-007 1.02186e-007 2.05275e-008 -3.1477 -1.685 0.8462 -4.05003e-008 3.40619e-008 6.84251e-009 -0.8055 -1.585 0.7955 -1.21501e-007 1.02186e-007 2.05275e-008 8.367 -8.2066 0.5982 88.7317 -29.1523 91.4583 2.1923 -43.463 -0.4932 -53.4329 80.8964 53.0143 0.7333 -45.8593 -2.6451 29.8435 53.5063 -28.2621 -8.367 -8.2066 0.5982 -88.7362 -29.1476 -91.4828 -2.1923 -43.463 -0.4931 53.4386 80.8978 -53.0318 -0.7333 -45.8593 -2.6451 -29.8711 53.4998 28.2672 
0.825569 19.3643 -5.31692 175.986 -88.2333 -3.87975 0 -1.186 -1.5018 -0.129229 -6.62419 -0.745076 2.22045e-016 9.964 0.2134 -0.349387 -13.246 -1.52072 -2.22045e-016 13.134 -3.2573 -0.349387 -13.2461 -1.52072 4.44089e-016 20.686 -1.6905 -5.00723 2.5738 -20.7762 -1.77636e-015 7.238 -0.1237 -14.8571 -19.3337 -20.0206 1.7069 20.075 5.0056 4.0508 38.7629 13.9379 13.6458 -0.047 -4.849 52.543 -2.37601 -41.8114 28.3255 -0.9759 2.2888 31.227 -30.9477 -37.9781 22.1583 -0.53 10.8316 76.0923 -8.64921 70.3135 0.786 0.112 2.5817 -5.43396e-007 1.78513e-006 -2.03449e-006 0.3601 -0.878 4.2331 -1.59028e-015 7.15625e-015 4.77083e-015 1.8127 -1.216 2.2227 5.43396e-007 -1.78513e-006 2.03449e-006 0.9571 1.114 1.7695 7.95139e-016 6.95746e-016 1.59028e-015 4.1246 0.487 4.1451 -5.43396e-007 1.78513e-006 -2.03449e-006 3.4052 -1.454 2.7682 -1.59028e-015 7.05686e-015 3.18055e-015 1.4531 -1.795 1.2713 5.43396e-007 -1.78513e-006 2.03449e-006 5.6954 0.21 2.1184 -5.43396e-007 1.78513e-006 -2.03449e-006 3.9766 -1.54 2.3863 -1.59028e-015 7.05686e-015 3.18055e-015 1.4042 -1.926 1.125 5.43396e-007 -1.78513e-006 2.03449e-006 2.0956 0.66 -0.3894 7.95139e-016 6.95746e-016 1.59028e-015 5.0395 -0.09 2.4971 -5.43396e-007 1.78513e-006 -2.03449e-006 3.7921 -1.552 1.4806 -1.59028e-015 7.05686e-015 3.18055e-015 1.4655 -1.808 0.9609 5.43396e-007 -1.78513e-006 2.03449e-006 4.9141 -1.269 0.3591 -5.43396e-007 1.78513e-006 -2.03449e-006 3.1477 -1.685 0.8462 -1.59028e-015 7.05686e-015 3.18055e-015 0.8055 -1.585 0.7955 5.43396e-007 -1.78513e-006 2.03449e-006 -1.7069 20.075 5.0056 45.4377 3.97022 -19.6975 -13.6458 -0.047 -4.849 -43.3368 12.3963 55.2995 -28.3255 -0.9759 2.2888 -27.8134 -27.8624 36.3463 -22.1583 -0.53 10.8316 -57.7119 -14.7318 -2.44502 -0.786 0.112 2.5817 1.61992e-007 -1.36256e-007 -2.73847e-008 -0.3601 -0.878 4.2331 1.61992e-007 -1.36256e-007 -2.73847e-008 -1.8127 -1.216 2.2227 1.61992e-007 -1.36256e-007 -2.73847e-008 -0.9571 1.114 1.7695 -9.37955e-032 3.37934e-015 1.59028e-015 -4.1246 0.487 4.1451 1.61992e-007 -1.36256e-007 -2.73847e-008 -3.4052 -1.454 2.7682 1.61992e-007 -1.36256e-007 -2.73847e-008 -1.4531 -1.795 1.2713 1.61992e-007 -1.36256e-007 -2.73847e-008 -5.6954 0.21 2.1184 1.61992e-007 -1.36256e-007 -2.73847e-008 -3.9766 -1.54 2.3863 1.61992e-007 -1.36256e-007 -2.73847e-008 -1.4042 -1.926 1.125 1.61992e-007 -1.36256e-007 -2.73847e-008 -2.0956 0.66 -0.3894 -9.37955e-032 3.37934e-015 1.59028e-015 -5.0395 -0.09 2.4971 1.61992e-007 -1.36256e-007 -2.73847e-008 -3.7921 -1.552 1.4806 1.61992e-007 -1.36256e-007 -2.73847e-008 -1.4655 -1.808 0.9609 1.61992e-007 -1.36256e-007 -2.73847e-008 -4.9141 -1.269 0.3592 1.61992e-007 -1.36256e-007 -2.73847e-008 -3.1477 -1.685 0.8462 1.61992e-007 -1.36256e-007 -2.73847e-008 -0.8055 -1.585 0.7955 1.61992e-007 -1.36256e-007 -2.73847e-008 8.367 -8.2066 0.5982 89.2575 -29.6082 92.1092 2.1923 -43.463 -0.4932 -53.4229 80.8967 53.025 0.7333 -45.8593 -2.6451 29.1256 53.7583 -27.6665 -8.367 -8.2066 0.5982 -89.2616 -29.6043 -92.1333 -2.1923 -43.463 -0.4931 53.4283 80.8981 -53.0426 -0.7333 -45.8593 -2.6451 -29.1528 53.752 27.6713 
